REM DIRINDEX 1\2,1\3,1\4,1\5
REM DIRNAME "folder01","folder02","folder03","folder04","folder05"
TITLE ""
FILE "1Q_t_1529-1538.mp3" MP3
  TRACK 01 AUDIO
    TITLE "3:cjc172_5572"
    INDEX 01 00:00:00
  TRACK 02 AUDIO
    TITLE "0:"
    INDEX 01 00:01:14
  TRACK 03 AUDIO
    TITLE "4:cjc172_5573"
    INDEX 01 00:01:23
  TRACK 04 AUDIO
    TITLE "0:"
    INDEX 01 00:05:21
  TRACK 05 AUDIO
    TITLE "5:cjc172_5574"
    INDEX 01 00:05:27
  TRACK 06 AUDIO
    TITLE "0:"
    INDEX 01 00:09:50
  TRACK 07 AUDIO
    TITLE "3:cjc172_5575"
    INDEX 01 00:10:20
  TRACK 08 AUDIO
    TITLE "0:"
    INDEX 01 00:11:39
  TRACK 09 AUDIO
    TITLE "4:cjc172_5576"
    INDEX 01 00:11:47
  TRACK 10 AUDIO
    TITLE "0:"
    INDEX 01 00:13:52
  TRACK 11 AUDIO
    TITLE "5:cjc172_5577"
    INDEX 01 00:13:58
  TRACK 12 AUDIO
    TITLE "0:"
    INDEX 01 00:17:60
  TRACK 13 AUDIO
    TITLE "3:cjc172_5578"
    INDEX 01 00:18:30
  TRACK 14 AUDIO
    TITLE "0:"
    INDEX 01 00:19:59
  TRACK 15 AUDIO
    TITLE "4:cjc172_5579"
    INDEX 01 00:19:66
  TRACK 16 AUDIO
    TITLE "0:"
    INDEX 01 00:23:66
  TRACK 17 AUDIO
    TITLE "5:cjc172_5580"
    INDEX 01 00:23:72
  TRACK 18 AUDIO
    TITLE "0:"
    INDEX 01 00:29:34
  TRACK 19 AUDIO
    TITLE "3:cjc172_5581"
    INDEX 01 00:30:06
  TRACK 20 AUDIO
    TITLE "0:"
    INDEX 01 00:31:21
  TRACK 21 AUDIO
    TITLE "4:cjc172_5582"
    INDEX 01 00:31:28
  TRACK 22 AUDIO
    TITLE "0:"
    INDEX 01 00:32:42
  TRACK 23 AUDIO
    TITLE "5:cjc172_5583"
    INDEX 01 00:32:48
  TRACK 24 AUDIO
    TITLE "0:"
    INDEX 01 00:36:71
  TRACK 25 AUDIO
    TITLE "3:cjc172_5584"
    INDEX 01 00:37:41
  TRACK 26 AUDIO
    TITLE "0:"
    INDEX 01 00:38:60
  TRACK 27 AUDIO
    TITLE "4:cjc172_5585"
    INDEX 01 00:38:70
  TRACK 28 AUDIO
    TITLE "0:"
    INDEX 01 00:41:54
  TRACK 29 AUDIO
    TITLE "5:cjc172_5586"
    INDEX 01 00:41:60
  TRACK 30 AUDIO
    TITLE "0:"
    INDEX 01 00:46:08
  TRACK 31 AUDIO
    TITLE "3:cjc172_5587"
    INDEX 01 00:46:54
  TRACK 32 AUDIO
    TITLE "0:"
    INDEX 01 00:47:73
  TRACK 33 AUDIO
    TITLE "4:cjc172_5588"
    INDEX 01 00:48:07
  TRACK 34 AUDIO
    TITLE "0:"
    INDEX 01 00:51:06
  TRACK 35 AUDIO
    TITLE "5:cjc172_5589"
    INDEX 01 00:51:12
  TRACK 36 AUDIO
    TITLE "0:"
    INDEX 01 00:54:67
  TRACK 37 AUDIO
    TITLE "3:cjc172_5590"
    INDEX 01 00:55:37
  TRACK 38 AUDIO
    TITLE "0:"
    INDEX 01 00:56:50
  TRACK 39 AUDIO
    TITLE "4:cjc172_5591"
    INDEX 01 00:56:58
  TRACK 40 AUDIO
    TITLE "0:"
    INDEX 01 01:00:36
  TRACK 41 AUDIO
    TITLE "5:cjc172_5592"
    INDEX 01 01:00:42
  TRACK 42 AUDIO
    TITLE "0:"
    INDEX 01 01:05:49
  TRACK 43 AUDIO
    TITLE "3:cjc172_5593"
    INDEX 01 01:06:19
  TRACK 44 AUDIO
    TITLE "0:"
    INDEX 01 01:07:38
  TRACK 45 AUDIO
    TITLE "4:cjc172_5594"
    INDEX 01 01:07:46
  TRACK 46 AUDIO
    TITLE "0:"
    INDEX 01 01:09:31
  TRACK 47 AUDIO
    TITLE "5:cjc172_5595"
    INDEX 01 01:09:37
  TRACK 48 AUDIO
    TITLE "0:"
    INDEX 01 01:14:48
  TRACK 49 AUDIO
    TITLE "3:cjc172_5596"
    INDEX 01 01:15:22
  TRACK 50 AUDIO
    TITLE "0:"
    INDEX 01 01:16:47
  TRACK 51 AUDIO
    TITLE "4:cjc172_5597"
    INDEX 01 01:16:57
  TRACK 52 AUDIO
    TITLE "0:"
    INDEX 01 01:18:69
  TRACK 53 AUDIO
    TITLE "5:cjc172_5598"
    INDEX 01 01:18:75
  TRACK 54 AUDIO
    TITLE "0:"
    INDEX 01 01:23:08
  TRACK 55 AUDIO
    TITLE "3:cjc172_5599"
    INDEX 01 01:23:51
  TRACK 56 AUDIO
    TITLE "0:"
    INDEX 01 01:24:58
  TRACK 57 AUDIO
    TITLE "4:cjc172_5600"
    INDEX 01 01:24:68
  TRACK 58 AUDIO
    TITLE "0:"
    INDEX 01 01:26:57
  TRACK 59 AUDIO
    TITLE "5:cjc172_5601"
    INDEX 01 01:26:65
  TRACK 60 AUDIO
    TITLE "0:"
    INDEX 01 01:31:17
